<svg width="1415" height="717" viewBox="0 0 1415 717" fill="none" xmlns="http://www.w3.org/2000/svg">
<path d="M1305.62 14.6641L1306.04 11.6105" stroke="#D7A6A1" stroke-width="23" stroke-linecap="round"/>
<path d="M1402.43 58.3715L1402.85 55.3179" stroke="#5A3E36" stroke-width="23" stroke-linecap="round"/>
<path d="M1298.1 358.945L1298.52 355.891" stroke="#5A3E36" stroke-width="23" stroke-linecap="round"/>
<path d="M1399.88 478.412L1400.31 475.358" stroke="#D7A6A1" stroke-width="23" stroke-linecap="round"/>
<path d="M1322.5 579.468L1322.92 576.414" stroke="#5A3E36" stroke-width="18" stroke-linecap="round"/>
<path d="M1400.31 703.993L1400.73 700.939" stroke="#9CAF9A" stroke-width="18" stroke-linecap="round"/>
<path d="M1400.73 292.258L1401.15 289.204" stroke="#9CAF9A" stroke-width="18" stroke-linecap="round"/>
<path d="M1322.08 178.459L1322.5 175.406" stroke="#FBF6F0" stroke-width="18" stroke-linecap="round"/>
<path d="M108.621 17.7176L108.197 14.664" stroke="#D7A6A1" stroke-width="23" stroke-linecap="round"/>
<path d="M11.8162 61.425L11.3921 58.3714" stroke="#5A3E36" stroke-width="23" stroke-linecap="round"/>
<path d="M116.142 361.998L115.718 358.945" stroke="#5A3E36" stroke-width="23" stroke-linecap="round"/>
<path d="M14.3605 481.466L13.9364 478.412" stroke="#D7A6A1" stroke-width="23" stroke-linecap="round"/>
<path d="M91.7399 582.521L91.3158 579.467" stroke="#5A3E36" stroke-width="18" stroke-linecap="round"/>
<path d="M13.9365 707.047L13.5125 703.993" stroke="#FBF6F0" stroke-width="18" stroke-linecap="round"/>
<path d="M13.5126 295.311L13.0885 292.258" stroke="#9CAF9A" stroke-width="18" stroke-linecap="round"/>
<path d="M92.1636 181.513L91.7395 178.459" stroke="#FBF6F0" stroke-width="18" stroke-linecap="round"/>
</svg>
