<svg width="1440" height="790" viewBox="0 0 1440 790" fill="none" xmlns="http://www.w3.org/2000/svg">
<rect x="-0.305054" y="-17" width="1440" height="630.221" fill="#9CAF9A"/>
<path d="M-159.39 638.371C-147.275 634.856 -132.222 629.882 -116.945 624.737C-107.087 621.417 -86.1311 620.977 -58.897 620.971C-36.2013 620.967 -29.2598 603.039 -24.2368 607.119C-18.0735 612.124 -15.9097 620.061 -7.8412 637.94C-1.85613 651.202 -1.42481 661.262 2.99741 673.421C6.63621 683.426 11.8251 701.398 14.9374 711.687C19.6657 727.32 28.5462 737.188 34.7289 744.175C39.1295 749.149 54.1449 751.099 72.493 751.296C91.9641 751.505 103.106 741.555 117.842 725.812C140.547 701.553 134.846 691.854 139.577 679.087C143.617 668.187 148.196 659.898 150.157 654.908C162.158 624.364 166.878 658.599 191.209 658.599C204.101 658.599 216.065 657.182 219.669 658.599C228.408 662.033 236.073 667.11 241.372 672.435C247.665 678.762 259.403 686.261 268.339 690.378C276.835 694.293 291.643 693.76 300.888 691.465C308.963 689.46 314.505 682.427 322.574 676.915C329.04 672.497 335.632 668.217 349.774 664.479C390.119 653.813 421.272 669.602 429.658 673.33C436.652 676.44 443 681.66 447.747 688.94C451.001 693.93 453.58 699.065 460.53 708.811C465.359 715.583 469.166 722.84 472.779 728.714C475.56 733.236 480.28 737.411 486.671 740.969C495.746 746.02 508.048 750.897 525.829 754.113C541.259 756.905 553.705 753.421 557.594 751.296C565.791 746.816 571.494 738.519 587.598 713.748C597.022 699.252 600.431 683.215 602.951 674.252C603.234 672.83 603.234 671.072 603.785 669.639C604.336 668.207 605.437 667.152 609.909 663.935" stroke="#9CAF9A" stroke-width="63" stroke-linecap="round"/>
<path d="M1212.33 696.956C1224.53 695.539 1240.07 693.419 1252.07 689.34C1263.32 685.513 1273.48 681.702 1284.32 676.03C1294.79 670.555 1303.51 667.855 1311.04 664.127C1319.79 659.793 1331.88 657.203 1354.64 656.831C1366.9 656.63 1374.7 666.385 1381.14 671.2C1387.26 675.785 1399.7 687.646 1408.95 694.81C1415.22 699.673 1420.89 706.521 1424.53 710.787C1428.6 715.56 1438.68 720.006 1447.87 724.459C1456.73 728.752 1490.18 727.846 1509.9 725.551C1521.59 724.189 1528.8 716.513 1538.82 708.348C1542.71 705.499 1544.97 703.358 1546.9 700.705C1548.29 699.108 1550.49 696.998 1552.76 693.76" stroke="#9CAF9A" stroke-width="63" stroke-linecap="round"/>
<path d="M1212.33 696.956C1224.53 695.539 1240.07 693.419 1252.07 689.34C1263.32 685.513 1273.48 681.702 1284.32 676.03C1294.79 670.555 1303.51 667.855 1311.04 664.127C1319.79 659.793 1331.88 657.203 1354.64 656.831C1366.9 656.63 1374.7 666.385 1381.14 671.2C1387.26 675.785 1399.7 687.646 1408.95 694.81C1415.22 699.673 1420.89 706.521 1424.53 710.787C1428.6 715.56 1438.68 720.006 1447.87 724.459C1456.73 728.752 1490.18 727.846 1509.9 725.551C1521.59 724.189 1528.8 716.513 1538.82 708.348C1542.71 705.499 1544.97 703.358 1546.9 700.705C1548.29 699.108 1550.49 696.998 1552.76 693.76" stroke="#9CAF9A" stroke-width="63" stroke-linecap="round"/>
<path d="M1203.99 727.499C1216.19 726.082 1231.73 723.962 1243.73 719.883C1254.98 716.055 1265.14 712.245 1275.98 706.573C1286.45 701.098 1295.17 698.398 1302.7 694.67C1311.45 690.336 1323.54 687.746 1346.3 687.373C1358.56 687.173 1366.36 696.928 1372.8 701.743C1378.92 706.328 1391.36 718.189 1400.61 725.352C1406.88 730.216 1412.55 737.064 1416.19 741.33C1420.26 746.103 1430.34 750.549 1439.53 755.002C1448.39 759.295 1481.84 758.389 1501.56 756.093C1513.26 754.732 1520.46 747.055 1530.48 738.891C1534.37 736.041 1536.63 733.9 1538.56 731.248C1539.95 729.65 1542.15 727.541 1544.42 724.303" stroke="#9CAF9A" stroke-width="63" stroke-linecap="round"/>
<path d="M609.909 663.935C611.561 661.464 619.321 656.5 630.727 652.586C634.694 651.224 643.218 651.153 654.332 651.68C666.229 652.245 667.749 660.718 673.297 666.928C678.626 672.893 682.2 677.761 683.61 682.027C685.549 687.894 692.213 701.131 693.623 708.833C694.7 714.718 698.32 720.368 703.343 724.81C708.563 729.426 716.677 731.382 730.828 735.643C740.151 738.45 751.153 735.664 760.582 733.369C772.071 730.572 782.843 720.102 793.123 707.522C807.015 690.521 809.026 681.021 813.757 668.601C819.44 653.682 836.26 641.588 850.436 633.253C857.563 629.062 865.196 627.016 884.345 627.006C894.877 627 900.808 633.024 909.419 639.585C919.883 647.559 921.968 658.226 925.839 667.434C933.941 686.703 934.183 694.783 935.868 706.5C936.855 713.357 943.094 717.876 949.477 722.68C955.227 727.007 961.985 730.317 970.053 732.986C973.491 734.123 981.426 734.237 991.43 733.886C1002.15 733.509 1010.91 724.331 1017.34 717.05C1029.72 703.018 1040.42 695.912 1044.05 690.762C1047.39 686.036 1053.77 682.768 1060.45 680.808C1063.95 679.782 1074.29 678.848 1088.47 679.375C1101.58 679.863 1108.84 687.71 1118.56 691.614C1128.96 695.784 1220.69 806.253 1264.64 732.986C1279.91 707.522 1319.99 668.601 1319.99 668.601C1319.99 668.601 1210.63 697.68 1212.33 696.956" stroke="#9CAF9A" stroke-width="63" stroke-linecap="round"/>
<path d="M67.2699 675.197C57.8428 669.194 41.8102 652.468 29.7584 639.638C22.9631 632.403 23.5247 623.121 24.9683 619.596C32.1117 602.152 36.6045 653.669 45.0036 673.738C49.3394 684.098 52.659 690.527 58.8599 695.888C60.3986 697.218 62.8516 697.982 66.4934 698.457C70.1352 698.932 75.1878 698.932 78.8733 697.78C93.1607 693.315 92.7733 678.52 96.0542 668.028C100.932 652.429 109.987 669.967 114.033 658.282C115.136 655.097 114.405 650.422 113.323 647.818C109.341 638.242 78.9936 604.469 60.7737 605.376C52.5151 605.788 51.981 615.596 48.7001 621.865C43.0211 632.715 55.5899 640.28 58.8599 642.604C60.4289 643.72 62.8516 644.007 65.0498 644.014C67.248 644.021 69.4134 643.561 70.5289 641.941C76.8334 632.788 64.3827 623.568 57.46 617.516C47.8555 609.119 35.2484 607.736 25.7448 604.008C23.4939 603.125 21.3812 602.151 20.2657 600.525C19.1502 598.898 19.1502 596.595 20.2329 594.947C22.2335 591.903 27.8774 590.047 35.489 587.952C58.6311 581.585 69.4134 590.479 82.526 591.659C105.631 593.738 141.309 622.415 157.363 619.392C170.361 616.945 187.941 615.434 263.937 616.803C280.124 617.094 283.48 622.331 286.061 625.382C290.482 630.607 291.573 635.413 293.017 638.443C295.868 644.427 309.771 633.137 319.603 629.165C321.967 628.21 324.338 628 326.898 627.532C329.457 627.064 332.344 626.603 326.613 626.366C320.883 626.129 306.447 626.129 304.063 625.207C296.49 622.28 345.292 618.701 394.724 615.909C449.736 612.802 481.121 616.342 482.948 619.357C484.915 622.606 476.09 626.575 469.485 633.542C461.172 642.309 479.59 660.446 488.405 670.784C493.728 677.028 500.063 683.343 503.727 688.934C507.289 694.372 509.556 700.096 516.467 706.847C518.196 708.535 519.748 709.869 521.575 710.812C523.401 711.754 525.566 712.215 528.125 711.991C533.807 711.495 538.711 708.515 542.353 705.73C548.866 700.748 547.482 688.564 551.113 674.114C554.015 662.566 555.488 654.079 558.769 647.099C562.391 639.391 566.424 633.137 568.25 628.258C569.025 626.187 567.911 624.761 566.096 624.048C564.281 623.336 561.393 623.336 558.462 624.258C545.371 628.374 538.034 634.478 528.202 640.998C525.852 642.556 523.467 643.329 521.629 642.652C510.769 638.649 514.674 626.645 518.644 618.506C522.613 615.434 530.553 614.513 550.884 614.038C571.214 613.563 603.695 613.563 637.16 613.563" stroke="#9CAF9A" stroke-width="63" stroke-linecap="round"/>
<path d="M637.16 631.917C658.223 631.917 681.562 630.996 702.34 631.442C715.512 631.726 724.563 649.508 731.562 659.812C736.434 666.984 742.849 676.063 745.419 686.332C746.675 691.352 752.341 696.572 754.528 702.611C755.535 705.39 755.272 707.727 757.077 701.773C768.612 663.709 770.583 649.215 771.666 636.657C773.01 621.061 815.75 617.956 819.414 618.647C836.989 621.962 762.053 626.333 749.815 626.102C740.396 625.925 800.373 625.411 829.508 623.561C874.994 620.673 895.213 614.703 917.654 614.005C967.466 612.455 1001.69 615.149 1003.88 619.547C1005.32 622.457 1004.62 627.17 1002.82 630.004C999.805 634.732 985.022 634.709 971.537 636.092C939.444 639.381 967.414 684.496 972.5 686.122C978.561 688.061 993.574 687.763 1011.42 687.072C1021.83 686.669 1035.85 669.292 1052.27 647.191C1057.92 639.589 1054.97 638.451 1051.69 637.976C1044.23 636.897 1036.73 638.423 1031.27 640.971C1018.61 646.885 1017.74 656.545 1015.57 662.842C1012.75 670.982 1001.73 683.49 994.077 691.93C992.642 693.513 990.796 694.715 991.135 694.736C1006.93 695.712 1014.77 670.59 1036.62 655.938C1046.47 649.331 1057.77 643.589 1073.82 637.983C1085.38 633.948 1122.43 633.313 1146.39 635.861C1155.96 636.879 1164.25 639.819 1173.38 644.461C1175.31 645.444 1173.78 647.247 1171.97 648.419C1154.58 659.654 1109.65 650.542 1098.35 648.908C1095.12 648.441 1091.45 648.671 1092.84 650.053C1105.27 662.419 1123.43 664 1141.24 672.37C1172.68 687.15 1221.07 675.7 1242.58 669.403C1253.14 665.927 1263.39 662.646 1272.13 660.322C1275.82 659.379 1277.98 658.918 1284.59 657.048" stroke="#9CAF9A" stroke-width="63" stroke-linecap="round"/>
<path d="M1284.59 657.048C1267.92 656.126 1243.07 653.334 1233.23 650.081C1218.97 645.367 1206.64 644.482 1197.13 640.776C1194.87 639.894 1192.77 639.372 1190.93 638.444C1189.09 637.516 1187.65 636.133 1194.48 634.27C1242.1 621.286 1277.24 624.49 1300.53 623.31C1319.57 622.346 1337 621.223 1354.52 619.359C1375.47 617.13 1397.54 617.034 1417.57 617.711C1422.02 617.862 1423.09 621.167 1423.83 623.505C1425.28 628.078 1423.85 632.825 1420.95 637.006C1414.4 646.459 1379.58 645.878 1348.95 645.187C1339.19 644.967 1341.41 643.114 1348.66 641.941C1399.64 633.696 1444.24 639.359 1447.88 640.748C1456.04 643.86 1460.27 651.435 1463.57 658.646C1467.37 666.948 1466.13 677.92 1465.05 688.161C1464.69 691.554 1461.8 691.03 1458.52 689.41C1443.39 681.941 1424 668.328 1414.01 658.004C1412.46 656.406 1413.64 653.836 1417.97 650.807C1439.79 635.541 1459.53 635.659 1468.65 633.32C1473.88 631.979 1482.84 631.917 1490.51 630.535C1493.28 630.036 1490.24 626.388 1486.23 624.043C1469.58 614.287 1446.58 612.846 1423.55 613.293C1419.9 613.363 1420.2 616.057 1420.92 618.619C1427.46 630.493 1436.93 637.948 1443.48 641.432C1446.42 643.072 1448.59 644.454 1450.82 645.878" stroke="#9CAF9A" stroke-width="63" stroke-linecap="round"/>
<path d="M-117.444 601.144C-107.273 603.001 -95.6154 604.858 -86.8554 606.952C-68.2743 611.394 -51.1265 629.039 -43.1102 633.241C-35.5154 637.223 -29.9976 642.079 -23.7748 648.355C-18.4402 653.735 -15.3867 659.754 -12.8276 665.576C-9.95255 672.117 -8.82492 677.904 -4.08951 684.654C-0.122482 690.309 2.11137 696.054 4.67047 702.336C8.2825 711.204 10.8604 717.917 13.7804 723.983C16.5667 729.772 26.1275 736.067 33.8157 741.672C37.8074 743.076 41.482 744.932 45.1129 747.257C47.3001 748.199 50.1873 748.66 57.5365 750.531" stroke="#9CAF9A" stroke-width="63" stroke-linecap="round"/>
</svg>
