<svg width="115" height="44" viewBox="0 0 115 44" fill="none" xmlns="http://www.w3.org/2000/svg">
<circle cx="53.739" cy="20.5" r="11.0391" fill="#9CAF9A"/>
<path d="M50.4751 12.7669V12.9011" stroke="#5A3E36" stroke-width="1.7" stroke-linecap="round"/>
<path d="M56.6543 12.2301V12.3643" stroke="#F2EADF" stroke-width="1.7" stroke-linecap="round"/>
<path d="M53.0831 16.9269V17.0611" stroke="#D7A6A1" stroke-width="1.7" stroke-linecap="round"/>
<path d="M60.3145 15.7192V15.8533" stroke="#5A3E36" stroke-width="1.7" stroke-linecap="round"/>
<path d="M47.1635 17.0611V17.1953" stroke="#F2EADF" stroke-width="1.7" stroke-linecap="round"/>
<path d="M44.5673 24.2912C44.5673 24.356 44.8046 24.9563 45.1775 25.8882C45.4584 26.5904 45.4592 26.9889 45.5593 27.2844C45.6982 27.6944 45.6327 28.4448 45.6594 29.0829C45.676 29.4768 45.9116 29.8201 46.0852 30.1637C46.1265 30.2454 46.165 30.311 46.2051 30.3525C46.2759 30.4256 46.4839 30.4268 46.7434 30.4025C46.9975 30.3787 47.1241 30.1166 47.2773 29.88C47.6693 29.2749 47.9105 28.7589 48.0102 28.5542C48.0736 28.4242 48.1635 28.3329 48.3026 28.2838C48.5506 28.1962 48.7629 28.3157 48.8295 28.4217C48.9679 28.6422 49.0822 28.8718 49.3086 29.345C49.4724 29.6872 49.6545 30.1137 49.8086 30.4747C49.9749 30.8644 50.3075 31.2593 50.5077 31.7097C50.6139 31.9486 50.7471 32.2086 51.1263 32.5527C51.3433 32.7495 51.5463 32.8153 52.1512 32.8239C52.2798 32.8257 52.3192 32.7996 52.366 32.7588C52.6815 32.4839 52.8259 31.9003 52.9456 31.6957C53.0849 31.4575 53.1456 31.1641 53.2387 30.9594C53.3435 30.729 53.3854 30.5746 53.4452 30.4928C53.5008 30.4167 53.6512 30.4268 53.8108 30.4349C54.0409 30.4466 54.3165 30.8342 54.6898 31.1457C54.929 31.3453 55.2485 31.6029 55.5692 31.8007C55.9014 32.0057 56.2747 31.9485 56.568 31.9892C57.0726 32.0593 57.3673 31.7531 57.5743 31.516C58.0641 30.955 58.2337 29.7917 58.3208 29.4054C58.3807 29.1397 58.487 28.8257 58.6667 28.5297C58.824 28.2704 59.3119 28.4467 59.5325 28.5692C59.8449 28.7426 60.072 29.0024 60.2784 29.199C60.491 29.4015 60.6714 29.4284 61.2692 29.4208C61.4057 29.4191 61.4571 29.3479 61.4974 29.2986C61.7667 28.9694 61.8175 28.0894 61.8443 27.3458C61.8684 26.6763 61.9374 26.3547 61.9842 25.7907C61.991 25.4241 62.0041 25.159 62.0241 24.9151C62.0309 24.7359 62.0309 24.4443 62.0309 24.1439" stroke="#9CAF9A" stroke-width="1.7" stroke-linecap="round"/>
<path d="M52.7607 31.4813C52.7086 31.4813 52.4735 31.4813 52.1384 31.4878C52.0116 31.4943 51.9725 31.5073 51.9068 31.514C51.8411 31.5207 51.75 31.5207 51.6561 31.4813" stroke="#9CAF9A" stroke-width="1.7" stroke-linecap="round"/>
<path d="M46.2911 29.5483C46.2911 29.5353 46.2911 29.5223 46.3042 29.496C46.3172 29.4698 46.3432 29.4308 46.4022 29.326C46.4612 29.2213 46.5523 29.0521 46.6856 28.7988" stroke="#9CAF9A" stroke-width="1.7" stroke-linecap="round"/>
<circle cx="75.8172" cy="20.5" r="11.0391" fill="#D7A6A1"/>
<path d="M78.236 12.1715L78.2594 12.3036" stroke="#5A3E36" stroke-width="1.7" stroke-linecap="round"/>
<path d="M71.967 12.7287L71.9904 12.8609" stroke="#F2EADF" stroke-width="1.7" stroke-linecap="round"/>
<path d="M76.3027 16.7287L76.3261 16.8608" stroke="#9CAF9A" stroke-width="1.7" stroke-linecap="round"/>
<path d="M69.0624 16.7948L69.0858 16.9269" stroke="#5A3E36" stroke-width="1.7" stroke-linecap="round"/>
<path d="M82.5487 15.8377L82.5721 15.9698" stroke="#F2EADF" stroke-width="1.7" stroke-linecap="round"/>
<path d="M67.0853 24.2912C67.0853 24.356 67.3227 24.9563 67.6956 25.8882C67.9765 26.5904 67.9773 26.9889 68.0774 27.2844C68.2163 27.6944 68.1507 28.4448 68.1775 29.0829C68.194 29.4768 68.4297 29.8201 68.6033 30.1637C68.6446 30.2454 68.683 30.311 68.7232 30.3525C68.794 30.4256 69.0019 30.4268 69.2615 30.4025C69.5156 30.3787 69.6421 30.1166 69.7954 29.88C70.1874 29.2749 70.4286 28.7589 70.5283 28.5542C70.5916 28.4242 70.6816 28.3329 70.8206 28.2838C71.0687 28.1962 71.281 28.3157 71.3475 28.4217C71.4859 28.6422 71.6003 28.8718 71.8267 29.345C71.9904 29.6872 72.1726 30.1137 72.3266 30.4747C72.4929 30.8644 72.8256 31.2593 73.0258 31.7097C73.132 31.9486 73.2651 32.2086 73.6444 32.5527C73.8614 32.7495 74.0644 32.8153 74.6692 32.8239C74.7979 32.8257 74.8373 32.7996 74.884 32.7588C75.1996 32.4839 75.344 31.9003 75.4637 31.6957C75.603 31.4575 75.6637 31.1641 75.7568 30.9594C75.8616 30.729 75.9035 30.5746 75.9632 30.4928C76.0188 30.4167 76.1692 30.4268 76.3289 30.4349C76.559 30.4466 76.8346 30.8342 77.2079 31.1457C77.4471 31.3453 77.7665 31.6029 78.0872 31.8007C78.4195 32.0057 78.7928 31.9485 79.0861 31.9892C79.5907 32.0593 79.8853 31.7531 80.0924 31.516C80.5822 30.955 80.7517 29.7917 80.8389 29.4054C80.8988 29.1397 81.0051 28.8257 81.1847 28.5297C81.3421 28.2704 81.8299 28.4467 82.0505 28.5692C82.3629 28.7426 82.59 29.0024 82.7964 29.199C83.0091 29.4015 83.1895 29.4284 83.7873 29.4208C83.9238 29.4191 83.9751 29.3479 84.0155 29.2986C84.2848 28.9694 84.3356 28.0894 84.3624 27.3458C84.3865 26.6763 84.4555 26.3547 84.5022 25.7907C84.509 25.4241 84.5222 25.159 84.5422 24.9151C84.549 24.7359 84.549 24.4443 84.549 24.1439" stroke="#D7A6A1" stroke-width="1.7" stroke-linecap="round"/>
<path d="M75.2787 31.4813C75.2267 31.4813 74.9916 31.4813 74.6564 31.4878C74.5296 31.4943 74.4906 31.5073 74.4249 31.514C74.3592 31.5207 74.2681 31.5207 74.1742 31.4813" stroke="#D7A6A1" stroke-width="1.7" stroke-linecap="round"/>
<path d="M79.9147 31.0058C79.8627 31.0058 79.6275 31.0058 79.2924 31.0123C79.1656 31.0188 79.1266 31.0318 79.0609 31.0385C78.9952 31.0452 78.9041 31.0452 78.8102 31.0058" stroke="#D7A6A1" stroke-width="1.7" stroke-linecap="round"/>
<path d="M68.8093 29.5483C68.8093 29.5353 68.8093 29.5223 68.8223 29.496C68.8354 29.4698 68.8614 29.4308 68.9204 29.326C68.9793 29.2213 69.0705 29.0521 69.2038 28.7988" stroke="#D7A6A1" stroke-width="1.7" stroke-linecap="round"/>
<path d="M13.9561 16.0898C13.9674 16.5684 14.1042 17.0013 14.3662 17.3887C14.6396 17.7646 14.9928 18.1235 15.4258 18.4653C15.8701 18.8071 16.3714 19.1432 16.9297 19.4736C17.488 19.7926 18.0576 20.1344 18.6387 20.499C19.2311 20.8522 19.8065 21.2396 20.3647 21.6611C20.923 22.0827 21.4243 22.5612 21.8687 23.0967C22.313 23.6322 22.6719 24.236 22.9453 24.9082C23.2188 25.5804 23.3669 26.3438 23.3896 27.1982V27.335C23.3896 28.2692 23.2757 29.0838 23.0479 29.7788C22.82 30.4738 22.5181 31.0719 22.1421 31.5732C21.7661 32.0745 21.3275 32.4904 20.8262 32.8208C20.3249 33.1398 19.7951 33.3962 19.2368 33.5898C18.6899 33.7835 18.1317 33.9202 17.562 34C17.0037 34.0798 16.474 34.1253 15.9727 34.1367H15.8018C14.8333 34.1367 13.9845 34.0399 13.2554 33.8462C12.5262 33.6525 11.8996 33.3962 11.3755 33.0771C10.8514 32.7467 10.4128 32.3708 10.0596 31.9492C9.71777 31.5277 9.44434 31.0947 9.23926 30.6504C9.03418 30.1947 8.88607 29.7446 8.79492 29.3003C8.70378 28.856 8.6582 28.4401 8.6582 28.0527C8.6582 27.654 8.72656 27.3065 8.86328 27.0103C9 26.714 9.1766 26.4748 9.39307 26.2925C9.62093 26.0988 9.87728 25.9564 10.1621 25.8652C10.4583 25.7741 10.766 25.7285 11.085 25.7285C11.3812 25.7285 11.6831 25.7741 11.9907 25.8652C12.3097 25.9564 12.5946 26.0988 12.8452 26.2925C13.1073 26.4748 13.318 26.714 13.4775 27.0103C13.6484 27.2951 13.7396 27.6312 13.751 28.0186C13.7738 28.873 13.9674 29.4598 14.332 29.7788C14.6966 30.0864 15.2207 30.2402 15.9043 30.2402C16.2461 30.2288 16.5594 30.189 16.8442 30.1206C17.1405 30.0409 17.3911 29.9098 17.5962 29.7275C17.8013 29.5339 17.9608 29.2832 18.0747 28.9756C18.2 28.6566 18.2627 28.2578 18.2627 27.7793C18.2627 27.1868 18.126 26.6514 17.8525 26.1729C17.5905 25.6943 17.243 25.25 16.8101 24.8398C16.3771 24.4297 15.8815 24.0423 15.3232 23.6777C14.765 23.3018 14.1953 22.9315 13.6143 22.5669C13.0332 22.1909 12.4635 21.8035 11.9053 21.4048C11.3584 20.9946 10.8628 20.5503 10.4185 20.0718C9.97412 19.5933 9.61523 19.0635 9.3418 18.4824C9.07975 17.9014 8.94303 17.2406 8.93164 16.5V16.2266C8.94303 15.0075 9.10254 13.9935 9.41016 13.1846C9.72917 12.3757 10.1906 11.7319 10.7944 11.2534C11.4097 10.7749 12.1616 10.4388 13.0503 10.2451C13.939 10.04 14.9587 9.9375 16.1094 9.9375H16.5537C17.6019 9.9375 18.4906 10.0514 19.2197 10.2793C19.9489 10.5072 20.5527 10.7977 21.0312 11.1509C21.5212 11.5041 21.9028 11.9028 22.1763 12.3472C22.4611 12.7915 22.6719 13.2301 22.8086 13.6631C22.9453 14.096 23.0308 14.5005 23.0649 14.8765C23.0991 15.2524 23.1162 15.5544 23.1162 15.7822C23.1162 16.124 23.0479 16.4373 22.9111 16.7222C22.7858 16.9956 22.6092 17.2292 22.3813 17.4229C22.1649 17.6165 21.9028 17.7703 21.5952 17.8843C21.299 17.9868 20.9743 18.0381 20.6211 18.0381C20.3477 18.0381 20.0742 17.9868 19.8008 17.8843C19.5273 17.7703 19.2824 17.6279 19.0659 17.457C18.8494 17.2861 18.6729 17.0924 18.5361 16.876C18.3994 16.6481 18.3311 16.4202 18.3311 16.1924C18.3311 15.2581 18.1602 14.6087 17.8184 14.2441C17.488 13.8796 16.998 13.6973 16.3486 13.6973C16.041 13.6973 15.7391 13.7144 15.4429 13.7485C15.158 13.7827 14.9017 13.8796 14.6738 14.0391C14.4574 14.1872 14.2808 14.4207 14.144 14.7397C14.0187 15.0588 13.9561 15.5088 13.9561 16.0898ZM32.2354 9.9375C33.4886 9.9375 34.5653 10.0799 35.4653 10.3647C36.3768 10.6496 37.1401 11.0199 37.7554 11.4756C38.382 11.9313 38.8833 12.4497 39.2593 13.0308C39.6353 13.6004 39.9201 14.1815 40.1138 14.7739C40.3188 15.3664 40.4499 15.936 40.5068 16.4829C40.5752 17.0298 40.6094 17.5026 40.6094 17.9014C40.6094 18.0723 40.5923 18.283 40.5581 18.5337C40.5353 18.7729 40.4385 19.0065 40.2676 19.2344C40.0967 19.4622 39.8232 19.6559 39.4473 19.8154C39.0827 19.9749 38.5586 20.0547 37.875 20.0547C37.6471 20.0547 37.3623 20.0433 37.0205 20.0205C36.6787 19.9863 36.3483 19.9123 36.0293 19.7983C35.7103 19.673 35.4368 19.5021 35.209 19.2856C34.9811 19.0578 34.8672 18.7445 34.8672 18.3457C34.8672 17.7305 34.8273 17.1779 34.7476 16.688C34.6792 16.1981 34.5482 15.7822 34.3545 15.4404C34.1608 15.0986 33.8931 14.8366 33.5513 14.6543C33.2095 14.472 32.7708 14.3809 32.2354 14.3809C31.6771 14.3809 31.2441 14.5005 30.9365 14.7397C30.6403 14.9676 30.4238 15.2183 30.2871 15.4917C30.1276 15.8221 30.0365 16.1924 30.0137 16.6025V27.4375C30.0365 27.9388 30.1276 28.3774 30.2871 28.7534C30.4238 29.0838 30.6403 29.3857 30.9365 29.6592C31.2441 29.9326 31.6771 30.0693 32.2354 30.0693C32.7708 30.0693 33.2095 29.9611 33.5513 29.7446C33.8931 29.5168 34.1608 29.2148 34.3545 28.8389C34.5482 28.4629 34.6792 28.0299 34.7476 27.54C34.8273 27.0501 34.8672 26.5374 34.8672 26.002C34.8672 25.8311 34.8957 25.6545 34.9526 25.4722C35.0096 25.2899 35.1406 25.1247 35.3457 24.9766C35.5508 24.8171 35.8527 24.686 36.2515 24.5835C36.6502 24.481 37.1914 24.4297 37.875 24.4297C38.5586 24.4297 39.0827 24.5094 39.4473 24.6689C39.8232 24.8171 40.0967 24.9937 40.2676 25.1987C40.4385 25.3924 40.5353 25.5861 40.5581 25.7798C40.5923 25.9621 40.6094 26.0817 40.6094 26.1387C40.6094 27.3919 40.3986 28.5142 39.9771 29.5054C39.5555 30.4852 38.9574 31.3169 38.1826 32.0005C37.4193 32.6841 36.5021 33.2082 35.4312 33.5728C34.3716 33.9259 33.2038 34.1025 31.9277 34.1025C31.7227 34.1025 31.3866 34.0854 30.9194 34.0513C30.4637 34.0171 29.951 33.9259 29.3813 33.7778C28.8117 33.6297 28.2249 33.4076 27.6211 33.1113C27.0173 32.8151 26.4647 32.4049 25.9634 31.8809C25.4735 31.3454 25.069 30.6846 24.75 29.8984C24.431 29.1009 24.2715 28.1325 24.2715 26.9932V17.457C24.2715 16.5228 24.3854 15.6968 24.6133 14.979C24.8411 14.2612 25.1374 13.6403 25.502 13.1162C25.8779 12.5807 26.3052 12.1364 26.7837 11.7832C27.2622 11.4186 27.7521 11.1167 28.2534 10.8774C29.4155 10.3306 30.7428 10.0173 32.2354 9.9375ZM95.126 24.5664V30.1035C95.126 30.5934 95.1089 31.0719 95.0747 31.5391C95.0519 32.0062 94.9551 32.422 94.7842 32.7866C94.6247 33.1512 94.3683 33.4474 94.0151 33.6753C93.6619 33.8918 93.1549 34 92.4941 34C91.8561 34 91.3605 33.8918 91.0073 33.6753C90.6655 33.4474 90.4149 33.1512 90.2554 32.7866C90.0959 32.422 89.999 32.0062 89.9648 31.5391C89.9421 31.0719 89.9307 30.5934 89.9307 30.1035V13.9707C89.9307 13.4808 89.9421 13.0023 89.9648 12.5352C89.999 12.068 90.0959 11.6522 90.2554 11.2876C90.4149 10.923 90.6655 10.6325 91.0073 10.416C91.3605 10.1882 91.8561 10.0742 92.4941 10.0742H98.1338C99.5465 10.1426 100.811 10.4388 101.928 10.9629C102.406 11.1908 102.868 11.4756 103.312 11.8174C103.768 12.1592 104.172 12.5807 104.525 13.082C104.89 13.5719 105.181 14.1587 105.397 14.8423C105.613 15.5145 105.722 16.2949 105.722 17.1836C105.722 18.4027 105.528 19.4736 105.141 20.3965C104.765 21.3079 104.212 22.077 103.483 22.7036C102.765 23.3188 101.882 23.786 100.834 24.105C99.7972 24.4126 98.6237 24.5664 97.3135 24.5664H95.126ZM97.4502 20.499C98.0199 20.4648 98.5326 20.3281 98.9883 20.0889C99.182 19.9863 99.37 19.8553 99.5522 19.6958C99.7345 19.5363 99.8997 19.3426 100.048 19.1147C100.196 18.8755 100.31 18.5964 100.39 18.2773C100.481 17.9583 100.526 17.5938 100.526 17.1836C100.526 16.7962 100.481 16.4601 100.39 16.1753C100.31 15.8791 100.202 15.6284 100.065 15.4233C99.9282 15.2069 99.7744 15.0246 99.6035 14.8765C99.4326 14.7284 99.256 14.603 99.0737 14.5005C98.6408 14.284 98.1566 14.153 97.6211 14.1074H95.126V20.499H97.4502Z" fill="#5A3E36"/>
<path d="M89.4404 32.7473L96.6721 31.1557" stroke="#F2EADF" stroke-width="4.5" stroke-linecap="round"/>
<path d="M2.25012 36.0413C2.25012 36.0413 6.84472 39.6051 19.5813 40.8096C37.0712 42.4636 55.0119 42.0001 80.5465 36.0413C93.8951 32.9263 94.1807 32.3898 100.822 32.3898C104.067 32.3898 108.032 33.6012 111.871 36.0413" stroke="#5A3E36" stroke-width="4.5" stroke-linecap="round"/>
</svg>
