<svg width="21" height="21" viewBox="0 0 21 21" fill="none" xmlns="http://www.w3.org/2000/svg">
<path d="M7 19.25C7.48325 19.25 7.875 18.8582 7.875 18.375C7.875 17.8918 7.48325 17.5 7 17.5C6.51675 17.5 6.125 17.8918 6.125 18.375C6.125 18.8582 6.51675 19.25 7 19.25Z" stroke="#5A3E36" stroke-width="2" stroke-linecap="round" stroke-linejoin="round"/>
<path d="M16.625 19.25C17.1082 19.25 17.5 18.8582 17.5 18.375C17.5 17.8918 17.1082 17.5 16.625 17.5C16.1418 17.5 15.75 17.8918 15.75 18.375C15.75 18.8582 16.1418 19.25 16.625 19.25Z" stroke="#5A3E36" stroke-width="2" stroke-linecap="round" stroke-linejoin="round"/>
<path d="M1.79376 1.79375H3.54376L5.87126 12.6613C5.95664 13.0593 6.1781 13.415 6.49751 13.6674C6.81692 13.9197 7.2143 14.0528 7.62126 14.0437H16.1788C16.577 14.0431 16.9632 13.9066 17.2734 13.6569C17.5836 13.4071 17.7994 13.059 17.885 12.67L19.3288 6.16875H4.48001" stroke="#5A3E36" stroke-width="2" stroke-linecap="round" stroke-linejoin="round"/>
</svg>
