<svg width="1397" height="716" viewBox="0 0 1397 716" fill="none" xmlns="http://www.w3.org/2000/svg">
<path d="M1268.74 14.5547L1269.24 11.5018" stroke="#D7A6A1" stroke-width="23" stroke-linecap="round"/>
<path d="M1384.42 58.2621L1384.93 55.2092" stroke="#5A3E36" stroke-width="23" stroke-linecap="round"/>
<path d="M1259.75 358.835L1260.25 355.782" stroke="#5A3E36" stroke-width="23" stroke-linecap="round"/>
<path d="M1381.38 478.303L1381.89 475.25" stroke="#D7A6A1" stroke-width="23" stroke-linecap="round"/>
<path d="M1288.91 579.358L1289.42 576.305" stroke="#5A3E36" stroke-width="18" stroke-linecap="round"/>
<path d="M1381.89 703.884L1382.4 700.831" stroke="#9CAF9A" stroke-width="18" stroke-linecap="round"/>
<path d="M1382.4 292.148L1382.9 289.096" stroke="#9CAF9A" stroke-width="18" stroke-linecap="round"/>
<path d="M1288.4 178.35L1288.91 175.297" stroke="#FBF6F0" stroke-width="18" stroke-linecap="round"/>
<path d="M127.697 17.6075L127.19 14.5546" stroke="#D7A6A1" stroke-width="23" stroke-linecap="round"/>
<path d="M12.0084 61.3151L11.5017 58.2622" stroke="#5A3E36" stroke-width="23" stroke-linecap="round"/>
<path d="M136.685 361.888L136.178 358.835" stroke="#5A3E36" stroke-width="23" stroke-linecap="round"/>
<path d="M15.0487 481.355L14.542 478.303" stroke="#D7A6A1" stroke-width="23" stroke-linecap="round"/>
<path d="M107.523 582.411L107.016 579.358" stroke="#5A3E36" stroke-width="18" stroke-linecap="round"/>
<path d="M14.542 706.937L14.0353 703.884" stroke="#FBF6F0" stroke-width="18" stroke-linecap="round"/>
<path d="M14.0353 295.201L13.5286 292.148" stroke="#9CAF9A" stroke-width="18" stroke-linecap="round"/>
<path d="M108.029 181.403L107.523 178.35" stroke="#FBF6F0" stroke-width="18" stroke-linecap="round"/>
</svg>
