<svg width="298" height="113" viewBox="0 0 298 113" fill="none" xmlns="http://www.w3.org/2000/svg">
<path d="M30.437 33.6593C29.1663 34.8522 28.3276 39.0636 27.6859 43.4331C25.7377 56.6986 28.3022 79.7311 30.85 83.0522C33.3024 86.2491 40.9967 85.1715 45.6539 84.7241C51.7871 84.135 52.8779 75.8631 56.4741 66.8349C60.2021 57.4758 60.5023 53.5593 64.7274 50.2381C66.6319 48.7411 70.6553 49.0226 74.2515 49.619C81.1493 50.7631 83.7819 57.138 88.8711 60.0073C91.5635 61.5253 93.9604 62.8766 97.7535 63.3285C103.98 64.0702 109.628 62.2892 112.589 60.0344C116.892 56.7576 119.362 53.252 124.451 49.488C128.601 46.419 137.14 47.2151 144.116 48.1098C156.105 49.6474 157.484 57.4453 161.518 60.9065C164.022 63.0544 166.392 64.6841 168.927 65.285C171.462 65.886 176.951 66.1933 183.934 65.746C191.442 65.2649 193.064 58.6743 196.679 53.862C198.164 51.8854 198.592 49.6371 199.856 47.6805C200.933 46.0139 207.029 46.3114 214.005 47.2061C226.307 48.7838 228.644 57.138 231.414 61.5075C234.026 65.6271 235.862 70.3866 237.558 74.3132C238.343 76.1299 239.255 77.9326 240.519 79.5865C243.215 83.1133 256.3 83.4996 260.106 83.0522C268.228 82.0975 270.184 66.8349 270.184 66.8349C270.184 66.8349 270.171 58.6924 270.184 46.9576C270.19 41.2119 266.491 34.5856 260.106 31.0927C255.668 28.6655 243.537 29.1407 204.234 27.6405C171.328 26.3845 107.544 27.3332 74.0799 27.4824C40.6155 27.6315 39.3575 27.9297 38.0804 28.5307C32.822 31.0052 32.1398 35.4487 30.653 39.3663C30.2074 40.5405 30.437 42.0639 31.9047 42.8321C35.5561 44.7432 41.0094 43.0038 44.1798 41.5036C51.0447 38.2553 55.826 33.6774 62.1796 31.8564C68.6671 29.997 87.467 30.0444 99.4562 31.0927C103.495 31.4459 107.087 33.352 109.838 34.7031C112.108 35.8177 111.763 39.3618 112.602 42.5248C114.088 48.1314 132.476 40.8891 139.903 39.2398C157.458 35.3416 183.762 39.0726 185.243 40.8755C186.629 42.5633 186.736 44.7932 189.881 46.6006C207.474 47.8116 215.073 51.4084 230.493 53.3876C237.044 53.5412 246.688 53.5412 256.625 53.5412" stroke="#E0CCB4" stroke-width="54" stroke-linecap="round"/>
</svg>
